<svg xmlns="http://www.w3.org/2000/svg" viewBox="0 0 166.69 169.84"><g id="Calque_1" data-name="Calque 1"><path d="M1.45,169.84H84.78a1.5,1.5,0,0,0,0-3H1.45a1.5,1.5,0,0,0,0,3Z"/></g><g id="Calque_2" data-name="Calque 2"><path d="M27,166.55q4.1-32,5.64-64.34,1.52-32.14.49-64.34-.59-18.1-2-36.19c-.15-1.91-3.15-1.93-3,0q2.47,32.22,2.39,64.55-.09,32.17-2.74,64.28-1.5,18.06-3.8,36c-.24,1.91,2.76,1.9,3,0Z"/></g><g id="Calque_3" data-name="Calque 3"><path d="M30.08,4.33C45.37,4,60.66,3.55,76,3.23s30.62-.43,45.9.55c8.7.56,17.37,1.51,26,2.48,1.92.21,1.9-2.79,0-3-15.24-1.7-30.43-3-45.77-3.21S71.51.32,56.21.7l-26.13.63c-1.93,0-1.94,3.05,0,3Z"/></g></svg>