<svg xmlns="http://www.w3.org/2000/svg" viewBox="0 0 166.69 169.84"><g id="Calque_1" data-name="Calque 1"><path d="M1.45,169.84H84.78a1.5,1.5,0,0,0,0-3H1.45a1.5,1.5,0,0,0,0,3Z"/></g><g id="Calque_2" data-name="Calque 2"><path d="M27,166.55q4.1-32,5.64-64.34,1.52-32.14.49-64.34-.59-18.1-2-36.19c-.15-1.91-3.15-1.93-3,0q2.47,32.22,2.39,64.55-.09,32.17-2.74,64.28-1.5,18.06-3.8,36c-.24,1.91,2.76,1.9,3,0Z"/></g><g id="Calque_3" data-name="Calque 3"><path d="M30.08,4.33C45.37,4,60.66,3.55,76,3.23s30.62-.43,45.9.55c8.7.56,17.37,1.51,26,2.48,1.92.21,1.9-2.79,0-3-15.24-1.7-30.43-3-45.77-3.21S71.51.32,56.21.7l-26.13.63c-1.93,0-1.94,3.05,0,3Z"/></g><g id="Calque_10" data-name="Calque 10"><path d="M27.44,136.94a26.86,26.86,0,0,0,3.4,7.75,13.08,13.08,0,0,0,2.89,2.91,15.64,15.64,0,0,1,3.45,2.88c1.92,2.52,3.29,5.63,4.84,8.4l5.28,9.4c.94,1.68,3.53.17,2.59-1.51l-5-9c-1.59-2.82-3-5.83-4.85-8.5a12.13,12.13,0,0,0-2.76-2.87,20.51,20.51,0,0,1-3.31-2.64c-1.9-2.11-2.76-5-3.6-7.64-.57-1.84-3.47-1-2.89.8Z"/></g><g id="Calque_11" data-name="Calque 11"><path d="M33.24,34.27a47.16,47.16,0,0,1,6.32-8c2.33-2.38,5-4.43,7.38-6.72C51.81,14.88,55,9,58.06,3.08c.89-1.71-1.7-3.23-2.59-1.51-3.1,6-6.29,11.82-11.3,16.43-2.45,2.26-5.05,4.33-7.35,6.75a51,51,0,0,0-6.17,8c-1,1.64,1.56,3.15,2.59,1.51Z"/></g><g id="Calque_4" data-name="Calque 4"><path d="M146.25,5c-.09,2.19-1.11,4.16-1.57,6.27a18.23,18.23,0,0,0,.16,7c.79,4.77,1.64,9.52,2.46,14.28.33,1.9,3.22,1.1,2.89-.79q-1.19-6.9-2.38-13.81a15.15,15.15,0,0,1,0-6.7A27.29,27.29,0,0,0,149.25,5c.07-1.93-2.93-1.92-3,0Z"/></g><g id="Calque_5" data-name="Calque 5"><path d="M161,33c-3.08-1.48-6.41-3-9.91-2.37-2.64.47-5.32,2.38-5.94,5.1-.76,3.35,1.46,6.41,4.23,8a25.4,25.4,0,0,0,4.43,1.88c1.64.57,3.45,1.06,5.14.42a6.11,6.11,0,0,0,3.48-3.82,12.66,12.66,0,0,0,.19-5.84,1.55,1.55,0,0,0-1.5-1.5c-.73,0-1.61.7-1.5,1.5.26,2.06.78,5-1.11,6.51-.92.74-2.11.42-3.13.1a27.52,27.52,0,0,1-3.51-1.33c-1.84-.88-4-2.5-3.87-4.82.14-1.78,1.9-2.88,3.5-3.25,2.72-.64,5.6.84,8,2a1.54,1.54,0,0,0,2-.54,1.51,1.51,0,0,0-.53-2Z"/></g><g id="Calque_6" data-name="Calque 6"><path d="M150.26,44.25a194.28,194.28,0,0,1,1.15,28.94q-.12,3.56-.38,7.11c-.16,2.1-.48,4.33.23,6.37s2.28,3.32,3.6,4.88A24.76,24.76,0,0,1,158,96.43a63.46,63.46,0,0,1,4.3,12.9c.48,1.87,3.38,1.08,2.9-.8a80.19,80.19,0,0,0-3.53-11.25,34.36,34.36,0,0,0-6.34-9.67c-1.56-1.75-1.58-3.62-1.41-5.86s.33-4.72.43-7.09c.21-4.74.24-9.5.09-14.25q-.25-8.1-1.18-16.16c-.21-1.9-3.22-1.92-3,0Z"/></g><g id="Calque_7" data-name="Calque 7"><path d="M150.92,85.92c-.15,1.89-2,3.17-3.4,4.18a23.13,23.13,0,0,0-5.14,4.63,15.66,15.66,0,0,0-2.86,6.47c-.44,2.33-.42,4.84-1.85,6.83-1.13,1.57,1.47,3.07,2.59,1.52,1.5-2.08,1.66-4.59,2.06-7a13.43,13.43,0,0,1,3.1-6.8c2.91-3.27,8.09-4.82,8.5-9.8.16-1.92-2.84-1.91-3,0Z"/></g></svg>