<svg xmlns="http://www.w3.org/2000/svg" viewBox="0 0 166.69 169.84"><g id="Calque_1" data-name="Calque 1"><path d="M1.45,169.84H84.78a1.5,1.5,0,0,0,0-3H1.45a1.5,1.5,0,0,0,0,3Z"/></g><g id="Calque_2" data-name="Calque 2"><path d="M27,166.55q4.1-32,5.64-64.34,1.52-32.14.49-64.34-.59-18.1-2-36.19c-.15-1.91-3.15-1.93-3,0q2.47,32.22,2.39,64.55-.09,32.17-2.74,64.28-1.5,18.06-3.8,36c-.24,1.91,2.76,1.9,3,0Z"/></g><g id="Calque_3" data-name="Calque 3"><path d="M30.08,4.33C45.37,4,60.66,3.55,76,3.23s30.62-.43,45.9.55c8.7.56,17.37,1.51,26,2.48,1.92.21,1.9-2.79,0-3-15.24-1.7-30.43-3-45.77-3.21S71.51.32,56.21.7l-26.13.63c-1.93,0-1.94,3.05,0,3Z"/></g><g id="Calque_10" data-name="Calque 10"><path d="M27.44,136.94a26.86,26.86,0,0,0,3.4,7.75,13.08,13.08,0,0,0,2.89,2.91,15.64,15.64,0,0,1,3.45,2.88c1.92,2.52,3.29,5.63,4.84,8.4l5.28,9.4c.94,1.68,3.53.17,2.59-1.51l-5-9c-1.59-2.82-3-5.83-4.85-8.5a12.13,12.13,0,0,0-2.76-2.87,20.51,20.51,0,0,1-3.31-2.64c-1.9-2.11-2.76-5-3.6-7.64-.57-1.84-3.47-1-2.89.8Z"/><path d="M151.2,34.77l.45,1a.39.39,0,0,0,.23.17.33.33,0,0,0,.29,0,.34.34,0,0,0,.17-.22v-.1a.41.41,0,0,0,0-.19l-.46-1a.34.34,0,0,0-.22-.17.37.37,0,0,0-.29,0,.39.39,0,0,0-.17.23l0,.1a.42.42,0,0,0,.06.19Z"/><path d="M150.88,35.57l.31-.19.09,0,.05,0c-.06,0-.06,0,0,0l.16-.06.36-.08h.29a.38.38,0,1,0,0-.75,2.65,2.65,0,0,0-1.61.5.38.38,0,0,0-.17.22.37.37,0,0,0,0,.29.37.37,0,0,0,.51.13Z"/><path d="M156.17,35.93l0,0s-.06,0,0,0l.07.06a1.85,1.85,0,0,1,.14.14h0s0,0,0,0l.06.08.1.18,0,0v0l0,.09a1.33,1.33,0,0,1,0,.19v0s0-.09,0,0a.31.31,0,0,1,0,.1v.2a.38.38,0,0,0,.37.38.39.39,0,0,0,.38-.38,2,2,0,0,0-.87-1.76.38.38,0,0,0-.52.13.37.37,0,0,0,.14.51Z"/><path d="M155.93,36.9a8.34,8.34,0,0,1,.85-.26l.42-.09.23,0h0l.13,0a.38.38,0,0,0,0-.75,7.88,7.88,0,0,0-1.86.44.37.37,0,0,0-.26.46.38.38,0,0,0,.46.26Z"/><path d="M152.89,39.73l2.31.21c.34,0,.7.05,1,.11s.59.14.69.42c.16.46.88.26.72-.2-.3-.88-1.23-1-2-1L152.89,39a.37.37,0,0,0-.37.37.38.38,0,0,0,.37.38Z"/><path d="M153.91,39.76a1.08,1.08,0,0,0,.27,1.31l.19.19.1.1s.05.06,0,0l0,0a.47.47,0,0,1,.07.12c0-.05,0,0,0,0l0,.07a3,3,0,0,0,.1.32.94.94,0,0,0,.44.52.68.68,0,0,0,.69,0,1,1,0,0,0,.36-.64,3.62,3.62,0,0,0,.09-.66,2.83,2.83,0,0,0-.39-1.44.37.37,0,0,0-.51-.13.39.39,0,0,0-.14.51l.12.21,0,0s0-.06,0,0a.56.56,0,0,1,0,.12,1,1,0,0,1,.06.23l0,.12h0a.2.2,0,0,0,0,.07,4,4,0,0,1,0,.49h0a.17.17,0,0,1,0,.07.43.43,0,0,1,0,.11,2.17,2.17,0,0,1-.07.24.64.64,0,0,1,0,.07s0-.05,0,0h0l.05,0s0,0,0,0h.06s-.07,0,0,0,0,0-.06,0,0,0,0,0,0,.07,0,0,0,0,0-.05,0,0,0,0l0-.07a3.35,3.35,0,0,0-.19-.53,1.81,1.81,0,0,0-.32-.41l-.19-.2,0,0s0-.06,0,0,0,0,0,0l0-.07,0,0h0a.25.25,0,0,1,0-.07s0,0,0,0v0s0-.07,0,0,0-.06,0,0,0,0,0,0a.37.37,0,0,0-.13-.51.4.4,0,0,0-.52.13Z"/></g><g id="Calque_11" data-name="Calque 11"><path d="M33.24,34.27a47.16,47.16,0,0,1,6.32-8c2.33-2.38,5-4.43,7.38-6.72C51.81,14.88,55,9,58.06,3.08c.89-1.71-1.7-3.23-2.59-1.51-3.1,6-6.29,11.82-11.3,16.43-2.45,2.26-5.05,4.33-7.35,6.75a51,51,0,0,0-6.17,8c-1,1.64,1.56,3.15,2.59,1.51Z"/></g><g id="Calque_4" data-name="Calque 4"><path d="M146.25,5c-.09,2.19-1.11,4.16-1.57,6.27a18.23,18.23,0,0,0,.16,7c.79,4.77,1.64,9.52,2.46,14.28.33,1.9,3.22,1.1,2.89-.79q-1.19-6.9-2.38-13.81a15.15,15.15,0,0,1,0-6.7A27.29,27.29,0,0,0,149.25,5c.07-1.93-2.93-1.92-3,0Z"/></g><g id="Calque_5" data-name="Calque 5"><path d="M161,33c-3.08-1.48-6.41-3-9.91-2.37-2.64.47-5.32,2.38-5.94,5.1-.76,3.35,1.46,6.41,4.23,8a25.4,25.4,0,0,0,4.43,1.88c1.64.57,3.45,1.06,5.14.42a6.11,6.11,0,0,0,3.48-3.82,12.66,12.66,0,0,0,.19-5.84,1.55,1.55,0,0,0-1.5-1.5c-.73,0-1.61.7-1.5,1.5.26,2.06.78,5-1.11,6.51-.92.74-2.11.42-3.13.1a27.52,27.52,0,0,1-3.51-1.33c-1.84-.88-4-2.5-3.87-4.82.14-1.78,1.9-2.88,3.5-3.25,2.72-.64,5.6.84,8,2a1.54,1.54,0,0,0,2-.54,1.51,1.51,0,0,0-.53-2Z"/></g><g id="Calque_6" data-name="Calque 6"><path d="M150.26,44.25a194.28,194.28,0,0,1,1.15,28.94q-.12,3.56-.38,7.11c-.16,2.1-.48,4.33.23,6.37s2.28,3.32,3.6,4.88A24.76,24.76,0,0,1,158,96.43a63.46,63.46,0,0,1,4.3,12.9c.48,1.87,3.38,1.08,2.9-.8a80.19,80.19,0,0,0-3.53-11.25,34.36,34.36,0,0,0-6.34-9.67c-1.56-1.75-1.58-3.62-1.41-5.86s.33-4.72.43-7.09c.21-4.74.24-9.5.09-14.25q-.25-8.1-1.18-16.16c-.21-1.9-3.22-1.92-3,0Z"/></g><g id="Calque_7" data-name="Calque 7"><path d="M150.92,85.92c-.15,1.89-2,3.17-3.4,4.18a23.13,23.13,0,0,0-5.14,4.63,15.66,15.66,0,0,0-2.86,6.47c-.44,2.33-.42,4.84-1.85,6.83-1.13,1.57,1.47,3.07,2.59,1.52,1.5-2.08,1.66-4.59,2.06-7a13.43,13.43,0,0,1,3.1-6.8c2.91-3.27,8.09-4.82,8.5-9.8.16-1.92-2.84-1.91-3,0Z"/></g><g id="Calque_8" data-name="Calque 8"><path d="M150.87,56.38c6.19,6.2,13.21,13.39,12.8,22.84-.08,1.93,2.92,1.92,3,0,.45-10.28-6.92-18.19-13.68-25a1.5,1.5,0,0,0-2.12,2.12Z"/></g><g id="Calque_9" data-name="Calque 9"><path d="M150.34,56.31c-.3.82-1.53,1.18-2.25,1.51a9.27,9.27,0,0,0-2.6,1.56c-2.06,1.95-1.81,4.85-1.57,7.42.43,4.62-.07,10.44-4.18,13.39-1.56,1.12-.06,3.72,1.51,2.59,4.54-3.25,5.94-8.87,5.78-14.22-.07-2.2-1.24-5.87,1-7.34,2-1.34,4.28-1.58,5.24-4.12.68-1.8-2.22-2.59-2.9-.79Z"/></g></svg>